<svg xmlns="http://www.w3.org/2000/svg" xmlns:xlink="http://www.w3.org/1999/xlink" viewBox="0 0 510.83 140.94"><defs><style>.cls-1{fill:url(#linear-gradient);}.cls-2{fill:url(#linear-gradient-2);}.cls-3{fill:url(#linear-gradient-3);}.cls-4{fill:url(#linear-gradient-4);}.cls-5{fill:url(#linear-gradient-5);}.cls-6{fill:url(#linear-gradient-6);}.cls-7{fill:url(#linear-gradient-7);}.cls-8{fill:url(#linear-gradient-8);}.cls-9{fill:url(#linear-gradient-9);}.cls-10{fill:url(#linear-gradient-10);}.cls-11{fill:url(#linear-gradient-11);}.cls-12{fill:url(#linear-gradient-12);}</style><linearGradient id="linear-gradient" x1="69.93" y1="36" x2="97.8" y2="36" gradientUnits="userSpaceOnUse"><stop offset="0" stop-color="#001ac3"/><stop offset="0.9" stop-color="#05eaff"/></linearGradient><linearGradient id="linear-gradient-2" x1="77.19" y1="31.86" x2="100.2" y2="31.86" xlink:href="#linear-gradient"/><linearGradient id="linear-gradient-3" x1="72.36" y1="39.3" x2="266.91" y2="39.3" xlink:href="#linear-gradient"/><linearGradient id="linear-gradient-4" x1="96.43" y1="38.88" x2="130.98" y2="38.88" xlink:href="#linear-gradient"/><linearGradient id="linear-gradient-5" x1="7.63" y1="87.54" x2="274.1" y2="87.54" xlink:href="#linear-gradient"/><linearGradient id="linear-gradient-6" x1="162.94" y1="96.4" x2="163.17" y2="96.4" xlink:href="#linear-gradient"/><linearGradient id="linear-gradient-7" x1="43.08" y1="73.83" x2="103.69" y2="73.83" xlink:href="#linear-gradient"/><linearGradient id="linear-gradient-8" x1="46.88" y1="46.31" x2="96.16" y2="46.31" xlink:href="#linear-gradient"/><linearGradient id="linear-gradient-9" x1="291.32" y1="62.33" x2="354.72" y2="62.33" xlink:href="#linear-gradient"/><linearGradient id="linear-gradient-10" x1="359.82" y1="71.61" x2="418.87" y2="71.61" xlink:href="#linear-gradient"/><linearGradient id="linear-gradient-11" x1="422.1" y1="68.77" x2="452.79" y2="68.77" xlink:href="#linear-gradient"/><linearGradient id="linear-gradient-12" x1="459.28" y1="71.71" x2="503.2" y2="71.71" xlink:href="#linear-gradient"/></defs><g id="TEXTS"><path class="cls-1" d="M97.8,33.8,71.08,37.51c-.39.22-.77.46-1.15.69l26.32-1.42Z"/><path class="cls-2" d="M98,33.41l2.19-4.22a76.49,76.49,0,0,0-23,5.34Z"/><path class="cls-3" d="M136.46,31.19c1.78.68,3.71,1.59,4.35,3.53,1.27,3.81-3.59,6.11-6.43,7A198.45,198.45,0,0,1,113.8,46.4c14.59-1.67,28.92-.23,43.26,2a82.93,82.93,0,0,0-10,5.22c3.44,2.52,7.14,5.18,10.58,7.71C194,57.28,230.36,55,266.91,55.79c-35.06-2.44-70.73-1.17-105.67,2.57a56,56,0,0,1-5.68-5.11c36.07-5.17,72.27-7.36,108.65-5.26-6.37-2.51-12.77-5.55-19.61-5.58q-18.06-.09-36.1.16c15.28-1.75,30.63-3.26,30.63-3.26-21.16-1.21-52,1.27-61.47,2.11l-1.3-.62c16.49-2.52,53-6.11,53-6.11-21.16-1.21-52,1.27-61.46,2.11l-1.31-.62c16.49-2.52,53-6.11,53-6.11-21.15-1.21-52,1.27-61.46,2.11l-1.3-.62c16.49-2.52,53-6.11,53-6.11-21.15-1.21-52,1.26-61.45,2.1l-2.81-1.33,7-1A226.88,226.88,0,0,1,197.89,23l7,.37c-21.23-4.92-50-6.15-68-6.13-11.38,0-22.84.36-34,2.71S81,26.76,72.36,34.21C92.17,25,116.07,23.39,136.46,31.19Z"/><path class="cls-4" d="M130.14,37.1a2.36,2.36,0,0,0,.74-2.41c-.38-1-1.57-1.45-2.62-1.74a111,111,0,0,0-23.4-3.75L96.43,48.56c6.71-1.49,10.68-2.81,16-6-3.41.73-6.37-.13-9.75-1,8.65-.79,16.88-.34,25.06-3.28A6.55,6.55,0,0,0,130.14,37.1Z"/><path class="cls-5" d="M273.7,71.41c-.7,2.57-1.22,5.82-1.93,8.39-2.92-2.81-7-2.33-11.08-2.31l-57.42.29c-6.11,0-12.72.23-17.49,4-3,2.39-4.84,5.92-7.63,8.54-4,3.76-9.43,5.24-15,6,5.87-.18,12,.54,17.46-1.15,5.74-1.77,10.37-6,15.67-8.79,9.95-5.28,21.71-5.45,33-5.5,10.59,0,21.18-.1,31.77,0,3,0,6.52.31,8.39,2.72,2.29,3,.67,7.44-2,10a19.83,19.83,0,0,1-13.26,5.53c-22.19,0-38.67,1.28-60.8,1.28-7.93,0-15.45,4-23.38,4.29-5.57.22-11.53-1-16-4.18h0c-.4-.47-.79-1-1.17-1.48l0-.05c-.35-.47-.69-1-1-1.5l-.13-.2c-.31-.49-.6-1-.89-1.54l-.19-.32c-.34-.65-.67-1.33-1-2-4.83-11.17-6.17-39.34-27.17-33.17s-14.5,41.17-14.5,41.17l-66.17-1,.08-5.5A44.65,44.65,0,0,0,36,72.55c-2.1-3.69-5.11-7.32-9.28-8.09C23,63.77,19.15,65.6,16.5,68.28a35.43,35.43,0,0,0-6.32,9.43A33.91,33.91,0,0,1,17.67,64,17.82,17.82,0,0,1,39,65.22a15.19,15.19,0,0,0-15-6.64,38.32,38.32,0,0,1,18.58-6.31,27.06,27.06,0,0,1,3.12,0,28.76,28.76,0,0,0-3.18-.61A31.25,31.25,0,0,0,16.17,60.6,31.15,31.15,0,0,0,8.68,90c.17,13,7.91,23.56,17.41,23.56H41.42c4.54,0,8.85-2.4,12.11-6.76l.26-.33,59.41,2.37c2.9,8.86,8.41,14.86,14.72,14.86h27.54c6,0,11.41-5.26,14.48-14.07l.07-.19c1.65,0,3.3,0,4.92,0l47.12-1c2.18,4.48,5.22,7.06,8.54,7.06h18.77c3.92,0,7.47-3.58,9.65-9.66a21.31,21.31,0,0,0,7.93-4.62c3.82-3.63,5.88-8.81,6.68-14S274.06,76.67,273.7,71.41ZM17.19,89.56c1.87,5.25,3.15,11.57,8.9,13.8C19.07,104.81,15.19,95.21,17.19,89.56Zm8.88,0c0-1.91,1-3.46,2.22-3.46s2.22,1.55,2.22,3.46S29.52,93,28.29,93,26.07,91.46,26.07,89.56Zm12.64,5.88a22.18,22.18,0,0,1-.86,2.69,19.33,19.33,0,0,1-4.4,6.81,9.2,9.2,0,0,1-7.36,2.69c9.88-2.24,11.14-16.57,9-24.65-3.22-11.91-12.83-13.89-19-2.57,2.59-10.06,9.84-12.24,15.58-8.69a14,14,0,0,1,3.4,3A18.87,18.87,0,0,1,38.59,82,27.74,27.74,0,0,1,38.71,95.44Zm72.61,4.44a55.84,55.84,0,0,1,.59-19.14,26.48,26.48,0,0,1,4.87-11.37c2.63-3.24,6.66-5.53,10.82-5.25s8,3.23,10.39,6.83c.4.61.75,1.24,1.09,1.88-3-4.52-6.88-7.27-11.16-7.27-9.3,0-16.88,13-16.88,29.07A50,50,0,0,0,111.32,99.88Zm9.28,4.46c-3.25-7.31-2.85-20.71,4.88-25a4.72,4.72,0,0,1,2.44-.36,5.71,5.71,0,0,0-3.62,2.59c-4.5,5.9-5,26.44,3.62,28.78C124.38,110.7,121.88,107.2,120.6,104.34Zm9.45-13.91c1.19,0,2.15,1.88,2.15,4.2s-1,4.2-2.15,4.2-2.15-1.88-2.15-4.2S128.86,90.43,130.05,90.43Zm10.21,10.76c-.2,1-.44,2.08-.72,3.1-.09.31-.17.63-.26.94-1.65,5-5.23,11.79-11.36,11.39a7,7,0,0,0,3.54-1.74c6.21-6.33,6.52-17.75,5.47-26.08-1.36-11.2-9-22.47-17.6-8.39,2.24-8.86,10.6-12.64,16.63-4.33a27.81,27.81,0,0,1,3.75,8.11,30.42,30.42,0,0,1,.69,3A38,38,0,0,1,140.26,101.19Z"/><path class="cls-6" d="M163,96.41l.22,0-.23,0Z"/><path class="cls-7" d="M76.6,66.77,45.11,61.94C45,60.72,45,59.52,45,58.32a49.68,49.68,0,0,0,1,30.64l57.64.38L53,81.54l41.71.28L47.92,74.64c-.08-.2-.15-.4-.22-.59l37.93.24L46,68.21c-.12-.55-.24-1.09-.34-1.64Z"/><path class="cls-8" d="M47.93,52.46a5.43,5.43,0,0,0,.83.83,11,11,0,0,0,3.05,1.62,9.79,9.79,0,0,0,3.46.76,3.86,3.86,0,0,0,.7-.07h0l.12,0h0a4.31,4.31,0,0,0,.84-.23l.13,0a3.71,3.71,0,0,0,.73-.41,4.85,4.85,0,0,0,1.61-2.32l30-2.75L96.16,37,65.63,41.2c-.23.18-.44.37-.66.55l29.09-1.56L61.9,44.65c-.18.19-.37.38-.54.58l28.57-1.54L59.8,47.88a7.73,7.73,0,0,0-.29-1.15,6.29,6.29,0,0,0-.59-1.37l-.16-.27a4.4,4.4,0,0,0-1.58-1.52,3.24,3.24,0,0,0-.66-.26L56,43.19l-.11,0-.12,0h0a8.3,8.3,0,0,0-5.1,1.27c-.19.1-.37.21-.54.32a10.54,10.54,0,0,0-1.42,1.17,5.56,5.56,0,0,0-1.84,3.76,3.68,3.68,0,0,0,0,.47A4.55,4.55,0,0,0,47.93,52.46Zm12-3.6,0-.27L85.81,47.2,59.86,50.8A10.36,10.36,0,0,0,59.92,48.86Zm-4.09-5.09a7.57,7.57,0,0,0-3.55,4.34,5.79,5.79,0,0,0-.19,2.58,5.55,5.55,0,0,0,2.33,3.65C48.57,52.73,50.42,44.38,55.83,43.77Z"/><path class="cls-9" d="M331.32,59.82a84,84,0,0,0,3.12-12.42,54.57,54.57,0,0,0,1-11.29c-.08-1.92-.58-2.87-1.49-2.83s-2.32,1.21-4.45,3.52a63.4,63.4,0,0,0-8.34,12.68A67.17,67.17,0,0,0,315.84,64a51.4,51.4,0,0,0-1.49,14.29c.15,3.64.65,6.12,1.48,7.43s2.35,1.93,4.54,1.84a20.71,20.71,0,0,0,7-1.88A111.14,111.14,0,0,0,347,74.05c3.05-2.13,5-3.22,5.83-3.25a1.59,1.59,0,0,1,1.87,1.73v.11a19,19,0,0,1-1.46,5.64q-2.6,6.12-4.59,8.07a43.48,43.48,0,0,1-9.34,6.51,80.16,80.16,0,0,1-12.28,5.44,38.73,38.73,0,0,1-10.62,2.35A23.78,23.78,0,0,1,307,99.16,24.14,24.14,0,0,1,299,94.31a23.91,23.91,0,0,1-7.7-16.7,31.23,31.23,0,0,1,.86-8.21,55.1,55.1,0,0,1,3.12-9.35,67.06,67.06,0,0,1,4.81-9.23q1.59-2.58,3.33-5a51.1,51.1,0,0,1,3.86-4.65A51.8,51.8,0,0,1,312,36.81q2.53-2.13,4.66-3.64a59.89,59.89,0,0,1,7.74-4.8,46.69,46.69,0,0,1,7.47-3.16A25.35,25.35,0,0,1,338.2,24q7.17-.3,11.36,3.25T354,37.37a35.08,35.08,0,0,1-2.79,14.54,43.93,43.93,0,0,1-8.47,13.51,38.78,38.78,0,0,1-7.44,6.6,13.82,13.82,0,0,1-6.79,2.58c-1.78.07-2.71-.75-2.78-2.46a6.67,6.67,0,0,1,1.34-3.39A52.08,52.08,0,0,0,331.32,59.82Z"/><path class="cls-10" d="M397.74,80.81V81l-.23-.21A102.74,102.74,0,0,1,388.61,91,40.72,40.72,0,0,1,381,97a14.28,14.28,0,0,1-6.5,2.19,13.5,13.5,0,0,1-10.27-3.68,14.25,14.25,0,0,1-4.42-10.22A27,27,0,0,1,361.42,76a49.19,49.19,0,0,1,5-10.61,53.35,53.35,0,0,1,13.84-14.69q8.72-6.31,17-6.67,7-.29,11.61,2.39t4.81,7.06a13,13,0,0,1-2,6.92c2-.09,3.21.07,3.74.47s.82,1.36.89,2.89q0-.21-.18,2.25-.1,5.43.09,10.12c.07,1.64.14,2.88.21,3.71s.18,1.8.34,2.89.3,2,.43,2.61a26,26,0,0,0,1.63,5,25.56,25.56,0,0,1-6.08,5,13.65,13.65,0,0,1-6.06,1.75q-8.42.34-9-13.74A23.73,23.73,0,0,1,397.74,80.81Zm2.76-12.64-1,.37a24.38,24.38,0,0,1-5.63,1.33c-1.42.06-2.15-.28-2.18-1a7,7,0,0,1,.79-2,16.14,16.14,0,0,0,2.7-8.87,11.06,11.06,0,0,0-1-4.26c-.6-1.26-1.23-1.89-1.88-1.86s-1.45.68-2.6,2a51.8,51.8,0,0,0-7.59,11.64,23,23,0,0,0-2.55,10.45A9.17,9.17,0,0,0,381,80.8a3.59,3.59,0,0,0,3.16,1.84q1.59-.08,5.79-3.64a96.52,96.52,0,0,0,9.38-9.36l1.43-1.26Z"/><path class="cls-11" d="M440.53,78.28l-.17,1.1a21.83,21.83,0,0,1-.11,2.68,32,32,0,0,1-.42,4.4,8,8,0,0,1-1,2.86,15.23,15.23,0,0,1-2,2.46c-2.55,2.55-5.18,3.88-7.87,4a5.36,5.36,0,0,1-4.94-2.2c-1.1-1.56-1.73-4.12-1.87-7.69a71.92,71.92,0,0,1,.51-10.56A101.31,101.31,0,0,1,424.51,64l.38-1.44a5.89,5.89,0,0,1,.27-1.38A71.48,71.48,0,0,1,428.42,50a18.19,18.19,0,0,1,3.86-5.93A7.48,7.48,0,0,1,437,42.2q3.87-.16,4.89,4.5a12.27,12.27,0,0,0,1.41-1.59,15.63,15.63,0,0,1,2.35-2.64,3.4,3.4,0,0,1,2-.71q4.69-.19,5.08,9.09a43.69,43.69,0,0,1-.69,9.88,30.18,30.18,0,0,1-2.43,7.87c-1,2.05-2.09,3.09-3.18,3.14s-1.9-2.2-2.09-6.76a30.34,30.34,0,0,0-.64-5.63,7.78,7.78,0,0,0-1.42-3.14q-1.51,3.12-1.55,14.07Q440.63,76.63,440.53,78.28Z"/><path class="cls-12" d="M475.35,95.88a8.41,8.41,0,0,0,5.75-3.39,9.61,9.61,0,0,0,2.38-6.58,4.89,4.89,0,0,0-1.75-3.76q-1.75-1.62-7.73-3Q465.21,77,462.46,74a8.28,8.28,0,0,1-2.71-5.9q-.25-6.28,4.05-12.75A36.08,36.08,0,0,1,475,44.54a28.81,28.81,0,0,1,14.15-4.61,13.71,13.71,0,0,1,6.62,1.36,13.12,13.12,0,0,1,5,4.15,10.36,10.36,0,0,1,2.05,5.79,12.73,12.73,0,0,1-1.7,6.53,18.53,18.53,0,0,1-4.72,5.75A9.63,9.63,0,0,1,490.91,66a5.11,5.11,0,0,1-2.67-.55c-.77-.41-1.16-.86-1.18-1.37a8.69,8.69,0,0,1,.34-2.26,33.61,33.61,0,0,0,.86-8.24,11.33,11.33,0,0,0-2.34-6.42,16.26,16.26,0,0,0-3.37,3.09,17.85,17.85,0,0,0-3,5.59,15.75,15.75,0,0,0-1,6,5,5,0,0,0,1,3.1,6.88,6.88,0,0,0,3,1.87,47,47,0,0,0,6.28,1.55,42.93,42.93,0,0,1,9.91,2.88,14.36,14.36,0,0,1,2.09,1.5,8.19,8.19,0,0,1,2.31,5.7,14.59,14.59,0,0,1-2,7.72,33.37,33.37,0,0,1-6.94,8.26,35.39,35.39,0,0,1-10.17,6.77,33.09,33.09,0,0,1-11.39,2.38c-4,.17-7.26-.5-9.63-2a7.58,7.58,0,0,1-3.74-6.42,10,10,0,0,1,2-6.07,18.2,18.2,0,0,1,5.51-5.18,13.64,13.64,0,0,1,6.61-2.19c1.64-.07,2.47.26,2.5,1a4.38,4.38,0,0,1-.63,1.83,14.63,14.63,0,0,0-1.84,7.14A6.84,6.84,0,0,0,475.35,95.88Z"/></g></svg>